<?xml version="1.0" encoding="utf-8"?>
<svg width="262px" height="67px" viewBox="0 0 262 67" version="1.1" xmlns:xlink="http://www.w3.org/1999/xlink" xmlns="http://www.w3.org/2000/svg">
  <defs>
    <path d="M0 0L262 0L262 67L0 67L0 0Z" id="path_1" />
    <path d="M0 0L11.577 0L11.577 11.4672L0 11.4672L0 0L0 0Z" id="path_2" />
    <clipPath id="mask_1">
      <use xlink:href="#path_1" />
    </clipPath>
    <clipPath id="mask_2">
      <use xlink:href="#path_2" />
    </clipPath>
  </defs>
  <g id="svg">
    <path d="M0 0L262 0L262 67L0 67L0 0Z" id="Background" fill="none" fill-rule="evenodd" stroke="none" />
    <g clip-path="url(#mask_1)">
      <g id="Group">
        <path d="M1.171 54.336L8.722 54.336C9.368 54.336 9.894 53.812 9.894 53.165L9.894 33.926C9.894 33.28 10.418 32.754 11.065 32.754L24.654 32.754C25.301 32.754 25.825 32.231 25.825 31.584L25.825 26.048C25.825 25.401 25.301 24.877 24.654 24.877L11.065 24.877C10.418 24.877 9.894 24.353 9.894 23.706L9.894 10.367C9.894 9.71998 10.418 9.19598 11.065 9.19598L28.318 9.19598C28.965 9.19598 29.489 8.67198 29.489 8.02498L29.489 2.52598C29.489 1.87998 28.965 1.35498 28.318 1.35498L1.171 1.35498C0.524 1.35498 0 1.87998 0 2.52598L0 53.165C0 53.812 0.524 54.336 1.171 54.336" id="Fill-1" fill="#FFFFFF" fill-rule="evenodd" stroke="none" />
        <g id="Group-5" transform="translate(35.097656 0)">
          <path d="M0 0L11.577 0L11.577 11.4672L0 11.4672L0 0L0 0Z" id="Clip-4" fill="none" fill-rule="evenodd" stroke="none" />
          <g id="Mask-group">
            <path d="M0 0L11.577 0L11.577 11.4672L0 11.4672L0 0L0 0Z" id="path_1" fill="none" stroke="none" />
            <g clip-path="url(#mask_2)">
              <g id="Group" transform="translate(0 -0.000854492)">
                <path d="M9.837 1.685C9.311 1.172 8.694 0.763 7.986 0.457001C7.277 0.152 6.522 0 5.714 0C4.933 0 4.194 0.152 3.498 0.457001C2.802 0.763 2.198 1.172 1.685 1.685C1.172 2.199 0.763 2.81 0.456001 3.518C0.150002 4.227 0 4.983 0 5.789C0 6.571 0.150002 7.304 0.456001 7.988C0.763 8.671 1.172 9.269 1.685 9.783C2.198 10.295 2.802 10.705 3.498 11.01C4.194 11.315 4.933 11.468 5.714 11.468C6.522 11.468 7.277 11.315 7.986 11.01C8.694 10.705 9.311 10.295 9.837 9.783C10.362 9.269 10.783 8.671 11.102 7.988C11.418 7.304 11.577 6.571 11.577 5.789C11.577 4.983 11.418 4.227 11.102 3.518C10.783 2.81 10.362 2.199 9.837 1.685" id="Fill-3" fill="#FFFFFF" fill-rule="evenodd" stroke="none" />
              </g>
            </g>
          </g>
        </g>
        <path d="M37.5108 54.336L44.2568 54.336C44.9038 54.336 45.4278 53.812 45.4278 53.165L45.4278 17.915C45.4278 17.268 44.9038 16.744 44.2568 16.744L37.5108 16.744C36.8638 16.744 36.3398 17.268 36.3398 17.915L36.3398 53.165C36.3398 53.812 36.8638 54.336 37.5108 54.336" id="Fill-6" fill="#FFFFFF" fill-rule="evenodd" stroke="none" />
        <path d="M103.395 17.0729L95.6991 17.0729C95.0531 17.0729 94.5271 16.5489 94.5271 15.9019L94.5271 6.40892C94.5271 5.76292 94.0031 5.23792 93.3561 5.23792L89.8361 5.23792L86.6491 5.23792C86.0011 5.23792 85.4781 5.76292 85.4781 6.40892L85.4781 15.9019C85.4781 16.5489 84.9521 17.0729 84.3061 17.0729L81.0421 17.0729C80.3951 17.0729 79.8711 17.5969 79.8711 18.2439L79.8711 22.3839C79.8711 23.0309 80.3951 23.5549 81.0421 23.5549L84.3061 23.5549C84.9521 23.5549 85.4781 24.0789 85.4781 24.7259L85.4781 35.2099L85.4781 44.5159C85.4781 47.7659 86.3501 50.3109 88.0971 52.1559C89.8421 54.0009 92.3531 54.9219 95.6271 54.9219C97.4581 54.9219 99.2291 54.6419 100.938 54.0789C102.294 53.6339 103.527 53.0199 104.637 52.2379C105.13 51.8879 105.241 51.1949 104.923 50.6799L102.771 47.1919C102.575 46.9229 102.391 46.7209 102.22 46.5869C102.049 46.4519 101.832 46.3849 101.563 46.3849C101.342 46.3849 101.122 46.4519 100.903 46.5869C100.683 46.7209 100.432 46.8619 100.151 47.0079C99.8721 47.1559 99.5411 47.2959 99.1621 47.4299C98.7841 47.5639 98.3131 47.6319 97.7521 47.6319C96.7501 47.6319 95.9601 47.3009 95.3891 46.6419C94.8141 45.9819 94.5271 45.0649 94.5271 43.8939L94.5271 35.2099L94.5271 24.7259C94.5271 24.0789 95.0531 23.5549 95.6991 23.5549L103.395 23.5549C104.042 23.5549 104.566 23.0309 104.566 22.3839L104.566 18.2439C104.566 17.5969 104.042 17.0729 103.395 17.0729" id="Fill-8" fill="#FFFFFF" fill-rule="evenodd" stroke="none" />
        <path d="M188.656 17.9151L188.656 53.1651C188.656 53.8121 189.18 54.3361 189.827 54.3361L196.536 54.3361C197.182 54.3361 197.707 53.8121 197.707 53.1651L197.707 27.6581C197.707 27.3341 197.84 27.0141 198.075 26.7901C199.187 25.7371 200.36 24.8931 201.591 24.2551C202.959 23.5461 204.423 23.1931 205.988 23.1931C208.137 23.1931 209.737 23.8221 210.786 25.0791C211.838 26.3371 212.363 28.1141 212.363 30.4101L212.363 53.1651C212.363 53.8121 212.887 54.3361 213.534 54.3361L220.242 54.3361C220.889 54.3361 221.413 53.8121 221.413 53.1651L221.413 30.4101C221.413 28.3101 221.14 26.3851 220.586 24.6401C220.038 22.8931 219.231 21.3921 218.17 20.1321C217.108 18.8741 215.782 17.8981 214.197 17.2021C212.608 16.5051 210.786 16.1571 208.735 16.1571C207.466 16.1571 206.292 16.2861 205.219 16.5421C204.144 16.7981 203.135 17.1521 202.195 17.6051C201.255 18.0571 200.362 18.6061 199.522 19.2531C198.885 19.7421 198.295 20.2931 197.707 20.8461L197.707 17.9151C197.707 17.2681 197.182 16.7441 196.536 16.7441L189.827 16.7441C189.18 16.7441 188.656 17.2681 188.656 17.9151" id="Fill-10" fill="#FFFFFF" fill-rule="evenodd" stroke="none" />
        <path d="M51.5859 18.2442L51.5859 22.3842C51.5859 23.0312 52.1099 23.5552 52.7569 23.5552L57.2809 23.5552L57.2999 23.5572L57.2999 53.1652C57.2999 53.8112 57.8259 54.3362 58.4719 54.3362L65.1799 54.3362C65.8279 54.3362 66.3519 53.8112 66.3519 53.1652L66.3519 24.7262C66.3519 24.0792 66.8759 23.5552 67.5229 23.5552L75.1099 23.5552C75.7569 23.5552 76.2809 23.0312 76.2809 22.3842L76.2809 18.2442C76.2809 17.5972 75.7569 17.0732 75.1099 17.0732L66.0579 17.0732L66.0579 14.5812C66.0579 13.1902 66.2099 12.0222 66.5169 11.0822C66.8199 10.1422 67.2679 9.38523 67.8529 8.81023C68.4399 8.23723 69.1539 7.83523 69.9969 7.60223C70.8389 7.36923 71.7979 7.25423 72.8729 7.25423L75.0009 7.25423C75.6479 7.25423 76.1709 6.73023 76.1709 6.08323L76.1709 2.03423C76.1709 1.50423 75.8219 1.02023 75.3069 0.895232C74.0619 0.591232 72.7379 0.438232 71.3359 0.438232C69.1599 0.438232 67.2069 0.757232 65.4709 1.39123C63.7369 2.02723 62.2669 2.94223 61.0569 4.13923C59.8469 5.33623 58.9189 6.78923 58.2729 8.49923C57.6249 10.2092 57.2999 12.1402 57.2999 14.2882L57.2999 17.0732L52.7569 17.0732C52.1099 17.0732 51.5859 17.5972 51.5859 18.2442" id="Fill-12" fill="#FFFFFF" fill-rule="evenodd" stroke="none" />
        <path d="M124.804 65.899L145.116 18.375C145.446 17.602 144.879 16.744 144.038 16.744L137.495 16.744C137.026 16.744 136.601 17.025 136.417 17.459L127.912 37.525C127.505 38.483 126.144 38.476 125.749 37.512L117.538 17.471C117.359 17.031 116.93 16.744 116.454 16.744L109.204 16.744C108.359 16.744 107.792 17.611 108.13 18.385L122.094 50.313C122.222 50.608 122.224 50.942 122.099 51.239L116.274 64.981C115.946 65.753 116.513 66.61 117.352 66.61L123.728 66.61C124.197 66.61 124.619 66.331 124.804 65.899" id="Fill-14" fill="#FFFFFF" fill-rule="evenodd" stroke="none" />
        <path d="M237.651 31.2163C236.873 31.2163 236.331 30.4733 236.518 29.7193C237.022 27.6973 237.882 26.0833 239.098 24.8763C240.601 23.3883 242.658 22.6423 245.273 22.6423C246.613 22.6423 247.793 22.8683 248.807 23.3203C249.821 23.7733 250.657 24.3893 251.317 25.1713C251.977 25.9523 252.472 26.8623 252.8 27.9013L253.366 29.6923C253.605 30.4473 253.042 31.2163 252.249 31.2163L237.651 31.2163L237.651 31.2163ZM260.256 36.6763C260.903 36.6763 261.427 36.1523 261.427 35.5053L261.427 32.9584L261.418 32.9584C261.394 30.3463 260.993 28.0083 260.201 25.9583C259.381 23.8453 258.252 22.0623 256.812 20.6093C255.371 19.1553 253.647 18.0513 251.646 17.2923C249.642 16.5353 247.454 16.1573 245.085 16.1573C242.276 16.1573 239.756 16.6463 237.52 17.6213C235.286 18.5993 233.392 19.9243 231.841 21.5983C230.29 23.2723 229.099 25.2383 228.268 27.4973C227.438 29.7573 227.023 32.1684 227.023 34.7333C227.023 38.0313 227.499 40.9314 228.451 43.4353C229.405 45.9394 230.712 48.0403 232.374 49.7374C234.033 51.4353 235.987 52.7174 238.236 53.5854C240.481 54.4513 242.912 54.8853 245.526 54.8853C246.844 54.8853 248.206 54.7873 249.612 54.5924C251.015 54.3974 252.396 54.0613 253.752 53.5854C255.107 53.1094 256.408 52.4723 257.654 51.6793C258.624 51.0613 259.519 50.3273 260.342 49.4793C260.746 49.0623 260.758 48.3933 260.399 47.9383L257.756 44.5854C257.387 44.1163 256.724 44.0014 256.217 44.3163L254.603 45.3214C254.095 45.6063 253.542 45.9063 252.909 46.2374C252.114 46.6544 251.186 47.0323 250.124 47.3744C249.061 47.7164 247.796 47.8874 246.332 47.8874C244.867 47.8874 243.528 47.6613 242.32 47.2094C241.112 46.7573 240.066 46.0723 239.187 45.1573C238.308 44.2413 237.598 43.0823 237.062 41.6753C236.649 40.5973 236.351 39.3633 236.17 37.9724C236.079 37.2833 236.643 36.6763 237.337 36.6763L260.256 36.6763L260.256 36.6763Z" id="Fill-16" fill="#FFFFFF" fill-rule="evenodd" stroke="none" />
        <path d="M157.175 45.859C155.996 42.642 155.404 39.2 155.392 35.54C155.404 31.879 155.996 28.438 157.175 25.22C158.036 22.87 159.164 20.743 160.556 18.837C161.194 17.963 160.596 16.744 159.512 16.744L154.254 16.744C153.903 16.744 153.56 16.878 153.309 17.124C151.087 19.31 149.387 21.913 148.212 24.933C146.985 28.087 146.368 31.624 146.352 35.54C146.368 39.456 146.985 42.993 148.212 46.147C149.387 49.166 151.087 51.77 153.309 53.956C153.56 54.202 153.903 54.336 154.254 54.336L159.512 54.336C160.596 54.336 161.194 53.116 160.556 52.243C159.164 50.337 158.036 48.209 157.175 45.859" id="Fill-18" fill="#FFFFFF" fill-rule="evenodd" stroke="none" />
        <path d="M171.619 45.859C172.798 42.642 173.39 39.2 173.402 35.54C173.39 31.879 172.798 28.438 171.619 25.22C170.758 22.87 169.63 20.743 168.238 18.837C167.6 17.963 168.199 16.744 169.282 16.744L174.54 16.744C174.891 16.744 175.234 16.878 175.485 17.124C177.707 19.31 179.407 21.913 180.582 24.933C181.809 28.087 182.426 31.624 182.442 35.54C182.426 39.456 181.809 42.993 180.582 46.147C179.407 49.166 177.707 51.77 175.485 53.956C175.234 54.202 174.891 54.336 174.54 54.336L169.282 54.336C168.199 54.336 167.6 53.116 168.238 52.243C169.63 50.337 170.758 48.209 171.619 45.859" id="Fill-20" fill="#FFFFFF" fill-rule="evenodd" stroke="none" />
      </g>
    </g>
  </g>
</svg>