<?xml version="1.0" encoding="utf-8"?>
<svg width="261px" height="67px" viewBox="0 0 261 67" version="1.1" xmlns:xlink="http://www.w3.org/1999/xlink" xmlns="http://www.w3.org/2000/svg">
  <defs>
    <path d="M0 0L261 0L261 67L0 67L0 0Z" id="path_1" />
    <path d="M0 0L11.577 0L11.577 11.4672L0 11.4672L0 0L0 0Z" id="path_2" />
    <path d="M0 0L34.4043 0L34.4043 38.728L0 38.728L0 0L0 0Z" id="path_3" />
    <clipPath id="mask_1">
      <use xlink:href="#path_1" />
    </clipPath>
    <clipPath id="mask_2">
      <use xlink:href="#path_2" />
    </clipPath>
    <clipPath id="mask_3">
      <use xlink:href="#path_3" />
    </clipPath>
  </defs>
  <g id="svg-2">
    <path d="M0 0L261 0L261 67L0 67L0 0Z" id="Background" fill="none" fill-rule="evenodd" stroke="none" />
    <g clip-path="url(#mask_1)">
      <g id="Group" transform="translate(0.0001 0.00019997358)">
        <path d="M1.171 54.336L8.722 54.336C9.368 54.336 9.894 53.812 9.894 53.165L9.894 33.926C9.894 33.28 10.418 32.754 11.065 32.754L24.654 32.754C25.301 32.754 25.826 32.231 25.826 31.584L25.826 26.048C25.826 25.401 25.301 24.877 24.654 24.877L11.065 24.877C10.418 24.877 9.894 24.353 9.894 23.706L9.894 10.367C9.894 9.72 10.418 9.196 11.065 9.196L28.318 9.196C28.965 9.196 29.489 8.672 29.489 8.025L29.489 2.526C29.489 1.88 28.965 1.355 28.318 1.355L1.171 1.355C0.524 1.355 0 1.88 0 2.526L0 53.165C0 53.812 0.524 54.336 1.171 54.336" id="Fill-1" fill="#000000" fill-rule="evenodd" stroke="none" />
        <g id="Group-5" transform="translate(35.097702 0)">
          <path d="M0 0L11.577 0L11.577 11.4672L0 11.4672L0 0L0 0Z" id="Clip-4" fill="none" fill-rule="evenodd" stroke="none" />
          <g id="Mask-group">
            <path d="M0 0L11.577 0L11.577 11.4672L0 11.4672L0 0L0 0Z" id="path_1" fill="none" stroke="none" />
            <g clip-path="url(#mask_2)">
              <g id="Group" transform="translate(0 -0.00079998374)">
                <path d="M9.837 1.685C9.311 1.172 8.694 0.763 7.987 0.457C7.277 0.152 6.522 0 5.714 0C4.933 0 4.194 0.152 3.498 0.457C2.802 0.763 2.198 1.172 1.686 1.685C1.172 2.199 0.763 2.81 0.455997 3.518C0.149998 4.227 0 4.983 0 5.789C0 6.571 0.149998 7.304 0.455997 7.988C0.763 8.671 1.172 9.269 1.686 9.783C2.198 10.295 2.802 10.705 3.498 11.01C4.194 11.315 4.933 11.468 5.714 11.468C6.522 11.468 7.277 11.315 7.987 11.01C8.694 10.705 9.311 10.295 9.837 9.783C10.362 9.269 10.783 8.671 11.102 7.988C11.418 7.304 11.577 6.571 11.577 5.789C11.577 4.983 11.418 4.227 11.102 3.518C10.783 2.81 10.362 2.199 9.837 1.685" id="Fill-3" fill="#000000" fill-rule="evenodd" stroke="none" />
              </g>
            </g>
          </g>
        </g>
        <path d="M37.5128 54.336L44.2578 54.336C44.9058 54.336 45.4298 53.812 45.4298 53.165L45.4298 17.915C45.4298 17.268 44.9058 16.744 44.2578 16.744L37.5128 16.744C36.8658 16.744 36.3418 17.268 36.3418 17.915L36.3418 53.165C36.3418 53.812 36.8658 54.336 37.5128 54.336" id="Fill-6" fill="#000000" fill-rule="evenodd" stroke="none" />
        <path d="M103.397 17.0729L95.7001 17.0729C95.0541 17.0729 94.5291 16.5489 94.5291 15.9019L94.5291 6.4089C94.5291 5.7629 94.0051 5.2379 93.3581 5.2379L89.8381 5.2379L86.6501 5.2379C86.0031 5.2379 85.4791 5.7629 85.4791 6.4089L85.4791 15.9019C85.4791 16.5489 84.9541 17.0729 84.3081 17.0729L81.0441 17.0729C80.3971 17.0729 79.8731 17.5969 79.8731 18.2439L79.8731 22.3839C79.8731 23.0309 80.3971 23.5549 81.0441 23.5549L84.3081 23.5549C84.9541 23.5549 85.4791 24.0789 85.4791 24.7259L85.4791 35.2099L85.4791 44.5159C85.4791 47.7659 86.3521 50.3109 88.0991 52.1559C89.8441 54.0009 92.3551 54.9219 95.6291 54.9219C97.4601 54.9219 99.2311 54.6419 100.94 54.0789C102.296 53.6339 103.528 53.0199 104.638 52.2379C105.131 51.8879 105.242 51.1949 104.925 50.6799L102.773 47.1919C102.576 46.9229 102.393 46.7209 102.222 46.5869C102.051 46.4519 101.833 46.3849 101.565 46.3849C101.343 46.3849 101.123 46.4519 100.904 46.5869C100.684 46.7209 100.433 46.8619 100.152 47.0079C99.8741 47.1559 99.5431 47.2959 99.1641 47.4299C98.7861 47.5639 98.3141 47.6319 97.7531 47.6319C96.7521 47.6319 95.9621 47.3009 95.3901 46.6419C94.8161 45.9819 94.5291 45.0649 94.5291 43.8939L94.5291 35.2099L94.5291 24.7259C94.5291 24.0789 95.0541 23.5549 95.7001 23.5549L103.397 23.5549C104.044 23.5549 104.568 23.0309 104.568 22.3839L104.568 18.2439C104.568 17.5969 104.044 17.0729 103.397 17.0729" id="Fill-8" fill="#000000" fill-rule="evenodd" stroke="none" />
        <path d="M188.658 17.9151L188.658 53.1651C188.658 53.8121 189.182 54.3361 189.829 54.3361L196.538 54.3361C197.184 54.3361 197.709 53.8121 197.709 53.1651L197.709 27.6581C197.709 27.3341 197.842 27.0141 198.077 26.7901C199.189 25.7371 200.362 24.8931 201.593 24.2551C202.961 23.5461 204.425 23.1931 205.99 23.1931C208.139 23.1931 209.739 23.8221 210.788 25.0791C211.84 26.3371 212.366 28.1141 212.366 30.4101L212.366 53.1651C212.366 53.8121 212.889 54.3361 213.536 54.3361L220.244 54.3361C220.891 54.3361 221.415 53.8121 221.415 53.1651L221.415 30.4101C221.415 28.3101 221.142 26.3851 220.589 24.6401C220.04 22.8931 219.233 21.3921 218.172 20.1321C217.111 18.8741 215.784 17.8981 214.199 17.2021C212.61 16.5051 210.788 16.1571 208.737 16.1571C207.468 16.1571 206.294 16.2861 205.221 16.5421C204.146 16.7981 203.137 17.1521 202.197 17.6051C201.257 18.0571 200.364 18.6061 199.524 19.2531C198.887 19.7421 198.297 20.2931 197.709 20.8461L197.709 17.9151C197.709 17.2681 197.184 16.7441 196.538 16.7441L189.829 16.7441C189.182 16.7441 188.658 17.2681 188.658 17.9151" id="Fill-10" fill="#000000" fill-rule="evenodd" stroke="none" />
        <path d="M51.5841 18.2442L51.5841 22.3842C51.5841 23.0312 52.1081 23.5552 52.7551 23.5552L57.2791 23.5552L57.2991 23.5572L57.2991 53.1652C57.2991 53.8112 57.8241 54.3362 58.4701 54.3362L65.1791 54.3362C65.8261 54.3362 66.3501 53.8112 66.3501 53.1652L66.3501 24.7262C66.3501 24.0792 66.8741 23.5552 67.5211 23.5552L75.1081 23.5552C75.7551 23.5552 76.2791 23.0312 76.2791 22.3842L76.2791 18.2442C76.2791 17.5972 75.7551 17.0732 75.1081 17.0732L66.0561 17.0732L66.0561 14.5812C66.0561 13.1902 66.2081 12.0222 66.5151 11.0822C66.8181 10.1422 67.2661 9.3852 67.8511 8.8102C68.4381 8.2372 69.1521 7.8352 69.9951 7.6022C70.8381 7.3692 71.7961 7.2542 72.8721 7.2542L74.9991 7.2542C75.6461 7.2542 76.1701 6.7302 76.1701 6.0832L76.1701 2.0342C76.1701 1.5042 75.8201 1.0202 75.3051 0.8952C74.0601 0.5912 72.7361 0.4382 71.3341 0.4382C69.1581 0.4382 67.2051 0.7572 65.4691 1.3912C63.7351 2.0272 62.2651 2.9422 61.0551 4.1392C59.8451 5.3362 58.9171 6.7892 58.2721 8.4992C57.6241 10.2092 57.2991 12.1402 57.2991 14.2882L57.2991 17.0732L52.7551 17.0732C52.1081 17.0732 51.5841 17.5972 51.5841 18.2442" id="Fill-12" fill="#000000" fill-rule="evenodd" stroke="none" />
        <path d="M124.806 65.899L145.118 18.375C145.447 17.602 144.88 16.744 144.04 16.744L137.497 16.744C137.027 16.744 136.603 17.025 136.418 17.459L127.913 37.525C127.506 38.483 126.146 38.476 125.751 37.512L117.54 17.471C117.36 17.031 116.932 16.744 116.456 16.744L109.206 16.744C108.361 16.744 107.794 17.611 108.132 18.385L122.096 50.313C122.223 50.608 122.226 50.942 122.1 51.239L116.275 64.981C115.948 65.753 116.515 66.61 117.354 66.61L123.729 66.61C124.198 66.61 124.621 66.331 124.806 65.899" id="Fill-14" fill="#000000" fill-rule="evenodd" stroke="none" />
        <g id="Group-18" transform="translate(227.0226 16.1574)">
          <path d="M0 0L34.4043 0L34.4043 38.728L0 38.728L0 0L0 0Z" id="Clip-17" fill="none" fill-rule="evenodd" stroke="none" />
          <g id="Mask-group">
            <path d="M0 0L34.4043 0L34.4043 38.728L0 38.728L0 0L0 0Z" id="path_2" fill="none" stroke="none" />
            <g clip-path="url(#mask_3)">
              <g id="Group">
                <path d="M10.626 15.059C9.849 15.059 9.306 14.316 9.493 13.562C9.998 11.54 10.857 9.926 12.073 8.719C13.576 7.231 15.633 6.485 18.248 6.485C19.588 6.485 20.769 6.711 21.782 7.163C22.796 7.616 23.632 8.232 24.292 9.014C24.953 9.795 25.447 10.705 25.775 11.744L26.341 13.535C26.58 14.29 26.017 15.059 25.224 15.059L10.626 15.059L10.626 15.059ZM33.233 20.519C33.88 20.519 34.405 19.995 34.405 19.348L34.405 16.801L34.395 16.801C34.372 14.189 33.97 11.851 33.178 9.801C32.358 7.688 31.23 5.905 29.789 4.452C28.348 2.998 26.625 1.894 24.623 1.135C22.619 0.378 20.431 0 18.062 0C15.253 0 12.733 0.489 10.497 1.464C8.263 2.442 6.36899 3.767 4.81799 5.441C3.267 7.115 2.07599 9.081 1.245 11.34C0.414993 13.6 0 16.011 0 18.576C0 21.874 0.475998 24.774 1.429 27.278C2.38199 29.782 3.689 31.883 5.351 33.58C7.00999 35.278 8.96399 36.56 11.213 37.428C13.458 38.294 15.889 38.728 18.503 38.728C19.821 38.728 21.183 38.63 22.589 38.435C23.992 38.24 25.373 37.904 26.729 37.428C28.084 36.952 29.385 36.315 30.631 35.522C31.601 34.904 32.497 34.17 33.319 33.322C33.723 32.905 33.735 32.236 33.376 31.781L30.733 28.428C30.364 27.959 29.701 27.844 29.194 28.159L27.58 29.164C27.072 29.449 26.519 29.749 25.886 30.08C25.091 30.497 24.163 30.875 23.101 31.217C22.038 31.559 20.773 31.73 19.309 31.73C17.844 31.73 16.505 31.504 15.297 31.052C14.089 30.6 13.043 29.915 12.164 29C11.286 28.084 10.576 26.925 10.039 25.518C9.62599 24.44 9.328 23.206 9.14699 21.815C9.056 21.126 9.62 20.519 10.315 20.519L33.233 20.519L33.233 20.519Z" id="Fill-16" fill="#000000" fill-rule="evenodd" stroke="none" />
              </g>
            </g>
          </g>
        </g>
        <path d="M157.175 45.859C155.996 42.642 155.405 39.2 155.392 35.54C155.405 31.879 155.996 28.438 157.175 25.22C158.036 22.87 159.165 20.743 160.556 18.837C161.195 17.963 160.596 16.744 159.512 16.744L154.254 16.744C153.903 16.744 153.56 16.878 153.309 17.124C151.087 19.31 149.387 21.913 148.212 24.933C146.985 28.087 146.368 31.624 146.352 35.54C146.368 39.456 146.985 42.993 148.212 46.147C149.387 49.166 151.087 51.77 153.309 53.956C153.56 54.202 153.903 54.336 154.254 54.336L159.512 54.336C160.596 54.336 161.195 53.116 160.556 52.243C159.165 50.337 158.036 48.209 157.175 45.859" id="Fill-19" fill="#000000" fill-rule="evenodd" stroke="none" />
        <path d="M171.618 45.859C172.797 42.642 173.389 39.2 173.401 35.54C173.389 31.879 172.797 28.438 171.618 25.22C170.757 22.87 169.629 20.743 168.237 18.837C167.599 17.963 168.198 16.744 169.281 16.744L174.539 16.744C174.89 16.744 175.234 16.878 175.485 17.124C177.707 19.31 179.406 21.913 180.581 24.933C181.808 28.087 182.425 31.624 182.441 35.54C182.425 39.456 181.808 42.993 180.581 46.147C179.406 49.166 177.707 51.77 175.485 53.956C175.234 54.202 174.89 54.336 174.539 54.336L169.281 54.336C168.198 54.336 167.599 53.116 168.237 52.243C169.629 50.337 170.757 48.209 171.618 45.859" id="Fill-21" fill="#000000" fill-rule="evenodd" stroke="none" />
      </g>
    </g>
  </g>
</svg>